<?xml version="1.0" encoding="UTF-8"?>
<svg id="Layer_1" data-name="Layer 1" xmlns="http://www.w3.org/2000/svg" viewBox="0 0 584.44 65.86">
  <defs>
    <style>
      .cls-1 {
        fill: #1d1d1b;
        stroke-width: 0px;
      }
    </style>
  </defs>
  <path class="cls-1" d="m0,33.11v-.18C0,14.83,14.1,0,33.39,0c11.37,0,18.47,3.09,25.02,8.73l-8.82,10.64c-4.82-4.09-9.37-6.46-16.65-6.46-10.19,0-18.29,9.01-18.29,19.83v.18c0,11.65,8.01,20.2,19.29,20.2,5.19,0,9.64-1.27,13.19-3.82v-9.1h-14.1v-12.1h27.66v27.66c-6.55,5.55-15.56,10.1-27.2,10.1C13.65,65.86,0,52.04,0,33.11Z"/>
  <path class="cls-1" d="m102.08,1.09h29.11c8.1,0,14.28,2.18,18.56,6.46,3.64,3.64,5.46,8.46,5.46,14.56v.18c0,10.28-5.55,16.74-13.65,19.74l15.56,22.74h-16.38l-13.65-20.38h-11.01v20.38h-14.01V1.09Zm28.2,30.93c6.91,0,10.73-3.55,10.73-9.01v-.18c0-6.09-4.09-9.1-11.01-9.1h-13.92v18.29h14.19Z"/>
  <path class="cls-1" d="m217.62.64h12.92l27.29,64.14h-14.65l-5.82-14.28h-26.93l-5.82,14.28h-14.28L217.62.64Zm14.74,37.48l-8.46-20.65-8.46,20.65h16.92Z"/>
  <path class="cls-1" d="m281.03,1.09h15.46l16.65,44.85L329.8,1.09h15.1l-25.75,64.14h-12.37L281.03,1.09Z"/>
  <path class="cls-1" d="m383.29,1.09h14.01v63.68h-14.01V1.09Z"/>
  <path class="cls-1" d="m455.98,14.01h-19.38V1.09h52.76v12.92h-19.38v50.76h-14.01V14.01Z"/>
  <path class="cls-1" d="m545.96,39.66l-24.47-38.57h16.38l15.19,25.56,15.47-25.56h15.92l-24.47,38.3v25.38h-14.01v-25.11Z"/>
</svg>